<svg id="Layer_1" data-name="Layer 1" xmlns="http://www.w3.org/2000/svg" viewBox="0 0 170.67 170.67"><defs><style>.cls-1,.cls-2{fill:#fff;}.cls-1{stroke:#e62b3e;stroke-miterlimit:10;stroke-width:6px;}.cls-3{fill:#e62b3e;}</style></defs><title>Ruby</title><circle class="cls-1" cx="85.33" cy="85.33" r="82.33"/><path class="cls-2" d="M98.69,66.4c0.73,0,1.46.08,2.19,0.09l12.74,0.13c3.17,0,6.35.06,9.52,0.15a7.31,7.31,0,0,1,2.13.43q10.63,3.64,21.24,7.33a2.82,2.82,0,0,1,.91.54q12.51,11,25,22.06a1.86,1.86,0,0,1,.42,2.72q-6,10.24-12,20.47a3.63,3.63,0,0,1-1.12,1.17q-25,16.12-50.12,32.22a12,12,0,0,0-1.29,1.11,0.09,0.09,0,0,1-.06,0,2.46,2.46,0,0,0-1.3-1.22L74.28,131.14q-7.91-5.42-15.81-10.86a4,4,0,0,1-1.14-1.23Q51,108.19,44.79,97.29a4,4,0,0,0-.31-0.41q0-.1,0-0.2l0.27-.2Q58,85.33,71.31,74.18a3.47,3.47,0,0,1,1.13-.63q9.32-3,18.64-6c1.17-.38,2.33-0.78,3.5-1.17h4.1Zm49.06,21.2c0-.14,0-0.21-0.06-0.29-0.8-2.95-1.61-5.89-2.38-8.85a1.19,1.19,0,0,0-.89-0.93l-19.77-6.81a5.87,5.87,0,0,0-1.59-.41c-1.69-.08-3.38-0.08-5.08-0.1L101.54,70,96.95,70a7.77,7.77,0,0,0-2.64.29c-2.48.84-5,1.6-7.47,2.4L74.07,76.73a0.67,0.67,0,0,0-.52.55c-0.2.82-.44,1.63-0.66,2.45-0.55,2.14-1.08,4.28-1.66,6.42a0.49,0.49,0,0,0,.32.73q10.09,4.6,20.17,9.22a1.92,1.92,0,0,0,.75.18l9.18,0.11,6.59,0.1,18.21,0.21a1.9,1.9,0,0,0,.75-0.17l15.21-6.59ZM62.48,118l44.11,9.85L91.28,99.49Zm65.06-18-15.79,27.94,43.89-8.77V119ZM109.18,127l15.64-27.67L94,98.95Zm-1.39,3.81-40.85-9.13,0,0.09,40.24,27.59Zm43.28-8,0-.11-2.38.48-37.75,7.53a0.48,0.48,0,0,0-.47.54c-0.16,5-.34,10-0.51,15.07,0,0.95,0,1.9,0,2.89Zm-89.54-7.45L89,97.79,70.24,89.2Zm68.32-17.12,26.91,18.24-8.24-26.34ZM58.94,114.76l8.31-25L49.06,97.59Zm92.59-23.92,7.84,25.07,9.82-16.84Zm-81.42-11L56.29,91.43a0.36,0.36,0,0,0,.31,0Q62.31,89,68,86.52a0.84,0.84,0,0,0,.4-0.48c0.22-.71.4-1.44,0.6-2.16Zm91.83,12.93,0.05-.1L148.87,81.08a0.4,0.4,0,0,0,0,.29c0.5,1.87,1,3.73,1.5,5.6a0.9,0.9,0,0,0,.56.66c2.11,1,4.21,2,6.32,2.93Z" transform="translate(-23.67 -23.52)"/><path class="cls-3" d="M147.75,87.61l-5.35,2.33-15.21,6.59a1.9,1.9,0,0,1-.75.17l-18.21-.21-6.59-.1-9.18-.11a1.92,1.92,0,0,1-.75-0.18q-10.09-4.61-20.17-9.22a0.49,0.49,0,0,1-.32-0.73c0.57-2.13,1.11-4.28,1.66-6.42,0.21-.82.46-1.63,0.66-2.45a0.67,0.67,0,0,1,.52-0.55l12.77-4.08c2.49-.8,5-1.55,7.47-2.4A7.77,7.77,0,0,1,96.95,70L101.54,70,118,70.22c1.69,0,3.39,0,5.08.1a5.87,5.87,0,0,1,1.59.41l19.77,6.81a1.19,1.19,0,0,1,.89.93c0.77,3,1.58,5.9,2.38,8.85C147.71,87.39,147.72,87.47,147.75,87.61Z" transform="translate(-23.67 -23.52)"/><path class="cls-3" d="M62.48,118L91.28,99.49l15.32,28.33Z" transform="translate(-23.67 -23.52)"/><path class="cls-3" d="M127.55,99.94l28.1,19v0.13l-43.89,8.77Z" transform="translate(-23.67 -23.52)"/><path class="cls-3" d="M109.18,127L94,98.95l30.81,0.38Z" transform="translate(-23.67 -23.52)"/><path class="cls-3" d="M107.79,130.81l-0.65,18.55L66.9,121.78l0-.09Z" transform="translate(-23.67 -23.52)"/><path class="cls-3" d="M151.07,122.86l-41.16,26.4c0-1,0-1.94,0-2.89,0.16-5,.34-10,0.51-15.07a0.48,0.48,0,0,1,.47-0.54l37.75-7.53,2.38-.48Z" transform="translate(-23.67 -23.52)"/><path class="cls-3" d="M61.53,115.41L70.24,89.2,89,97.79Z" transform="translate(-23.67 -23.52)"/><path class="cls-3" d="M129.85,98.28l18.67-8.1,8.24,26.34Z" transform="translate(-23.67 -23.52)"/><path class="cls-3" d="M58.94,114.76L49.06,97.59l18.19-7.82Z" transform="translate(-23.67 -23.52)"/><path class="cls-3" d="M151.53,90.85l17.66,8.22-9.82,16.84Z" transform="translate(-23.67 -23.52)"/><path class="cls-3" d="M70.11,79.82L69,83.89c-0.19.72-.37,1.45-0.6,2.16a0.84,0.84,0,0,1-.4.48Q62.31,89,56.6,91.44a0.36,0.36,0,0,1-.31,0Z" transform="translate(-23.67 -23.52)"/><path class="cls-3" d="M161.94,92.75l-4.71-2.19c-2.11-1-4.21-2-6.32-2.93a0.9,0.9,0,0,1-.56-0.66c-0.49-1.87-1-3.73-1.5-5.6a0.4,0.4,0,0,1,0-.29L162,92.66Z" transform="translate(-23.67 -23.52)"/></svg>