<svg width="602" height="132" viewBox="0 0 602 132" fill="none" xmlns="http://www.w3.org/2000/svg">
<g clip-path="url(#clip0)">
<path d="M152.05 84.1311L162.357 78.7162C166.94 87.7743 174.014 92.1373 183.579 92.1373C192.945 92.1373 199.289 89.1142 199.289 82.149C199.289 75.4827 194.506 72.36 181.808 68.6172C166.929 64.2432 154.961 60.1903 154.961 45.5068C154.961 32.3958 165.678 23.7585 181.288 23.7585C196.477 23.7585 205.433 31.2552 210.116 40.3023L200.651 46.8578C196.067 39.1506 189.513 35.6182 181.188 35.6182C172.653 35.6182 167.759 38.7409 167.759 44.3662C167.759 51.5529 173.272 53.9448 185.86 57.6877C200.429 61.951 212.087 66.7458 212.087 81.2077C212.087 93.7983 201.37 103.687 183.059 103.687C167.77 103.698 156.943 95.7915 152.05 84.1311Z" fill="#363545"/>
<path d="M217.511 102.236V25.2202H230.309V71.1198L251.222 46.9685H265.271L247.27 67.1666L266.832 102.247H253.403L239.144 76.6455L230.298 86.3237V102.247H217.511V102.236Z" fill="#363545"/>
<path d="M266.112 74.6633C266.112 53.6347 280.991 45.9387 292.439 45.9387C304.827 45.9387 316.684 53.3247 316.684 75.8149V78.838H278.91C279.43 88.8263 285.575 93.2003 293.69 93.2003C300.875 93.2003 305.037 90.8084 309.2 86.7445L315.964 93.4107C310.24 99.7558 302.646 103.399 292.76 103.399C278.91 103.388 266.112 94.9499 266.112 74.6633ZM304.926 69.2484C304.196 60.8214 300.033 56.3367 292.339 56.3367C286.095 56.3367 280.371 59.8802 279.12 69.2484H304.926Z" fill="#363545"/>
<path d="M330.522 87.7743V57.1672H320.946V46.9685H330.522V27.7117H343.32V46.9685H357.579V57.1672H343.32V84.5409C343.32 90.4763 345.091 92.8681 351.435 92.8681C353.306 92.8681 355.697 92.5581 356.948 92.1373V102.236C355.597 102.546 350.804 102.967 347.582 102.967C333.544 102.967 330.522 97.7626 330.522 87.7743Z" fill="#363545"/>
<path d="M362.572 74.6633C362.572 53.5351 376.831 45.9387 389.109 45.9387C402.848 45.9387 408.671 53.5351 412.003 62.0727L401.176 65.9263C398.995 59.6809 395.032 56.6578 388.898 56.6578C381.614 56.6578 375.469 61.4415 375.469 74.6633C375.469 86.4233 380.252 92.8792 388.688 92.8792C394.511 92.8792 398.574 91.1074 401.597 83.3006L412.213 87.1542C408.261 96.0019 401.707 103.388 388.389 103.388C375.58 103.388 362.572 94.8503 362.572 74.6633Z" fill="#363545"/>
<path d="M419.908 102.236V25.2202H432.816V54.4653C436.359 50.7225 443.012 45.9276 452.998 45.9276C462.674 45.9276 468.918 51.6526 468.918 62.5822V102.236H456.021V65.8046C456.021 59.6698 453.419 56.8572 447.795 56.8572C442.171 56.8572 437.488 59.7695 432.805 64.0439V102.247H419.908V102.236Z" fill="#363545"/>
<path d="M478.705 74.1318V25.2202H491.713V72.9912C491.713 84.7513 496.816 91.7276 508.673 91.7276C520.43 91.7276 525.534 84.9617 525.534 73.0909V25.2202H538.332V74.0322C538.332 91.5172 528.446 103.488 508.574 103.488C487.34 103.488 478.705 91.6279 478.705 74.1318Z" fill="#363545"/>
<path d="M546.757 123.054V46.9685H559.555V54.2549C563.197 49.8808 568.921 45.9276 577.146 45.9276C589.734 45.9276 599 55.3954 599 74.5526C599 93.7097 589.534 103.067 575.375 103.067C569.441 103.067 563.618 100.675 559.555 96.0905V123.043H546.757V123.054ZM586.202 74.6633C586.202 63.0029 581.209 56.8682 572.984 56.8682C567.681 56.8682 562.577 60.2013 559.555 63.8445V86.0136C562.987 90.4873 567.98 92.8792 572.563 92.8792C582.25 92.8681 586.202 86.9438 586.202 74.6633Z" fill="#363545"/>
<path d="M114.94 31.3881L75.7388 8.78713C75.7388 8.78713 69.5281 5.15503 59.6197 5.15503C49.3017 5.15503 43.3235 8.89787 43.3235 8.89787L7.01129 29.6828L62.2546 61.4416V125.624L98.6111 104.861C98.6111 104.861 105.11 101.273 110.047 92.7463C114.398 85.2385 114.94 77.9743 114.94 77.9743V31.3881ZM55.8335 41.8304C55.8335 41.8304 63.9373 40.3355 70.7902 44.2887C77.643 48.242 81.6838 50.5674 81.6838 50.5674C81.6838 50.5674 81.6949 56.0709 81.6949 64.2985C81.6949 70.8873 76.1152 77.7196 76.1152 77.7196L76.1263 53.5462L55.8335 41.8304ZM87.9499 94.8503L76.1152 101.638V95.2711L85.3261 90.0001C94.0942 83.6771 95.5445 74.3533 95.5445 71.1198L95.5112 42.4838L70.4027 28.0329C70.4027 28.0329 66.5833 25.5302 59.7194 25.5302C52.8555 25.5302 49.1135 27.8446 49.1135 27.8446L40.2901 32.9163L34.7215 29.6939L46.9104 22.7287C46.9104 22.7287 51.682 20.0821 59.6751 20.0821C67.015 20.0821 72.7275 22.9501 72.7275 22.9501L101.113 39.3278L101.08 70.5772C101.246 75.3831 99.0096 87.1321 87.9499 94.8503Z" fill="#005F9E"/>
<path d="M4.22144 50.4678L42.9471 72.6922L42.9139 79.3142L20.8941 66.6793L7.02235 74.5526L42.8917 95.2268L42.9139 101.605L4.48713 79.4914C4.58677 82.0826 6.93378 90.0666 11.4285 96.2456C15.9897 102.502 21.193 105.16 21.193 105.16L56.7081 125.612V64.6307L4.26572 34.4887L4.22144 50.4678Z" fill="#005F9E"/>
</g>
<defs>
<clipPath id="clip0">
<rect width="595" height="121" fill="white" transform="translate(4 5)"/>
</clipPath>
</defs>
</svg>
