<svg width="559" height="128" viewBox="0 0 559 128" fill="none" xmlns="http://www.w3.org/2000/svg">
<path d="M196.51 43.008H218.848V53.76H219.103C221.903 44.864 232.022 41.344 241.06 41.344V64.512C237.941 63.36 235.014 62.528 231.768 62.528C224.194 62.528 221.776 64.512 219.23 68.032V113.984H196.446V43.008H196.51Z" fill="#005F9E"/>
<path d="M247.042 43.008H269.826V113.984H247.042V43.008Z" fill="#005F9E"/>
<path d="M277.527 43.008H300.311V52.48H300.566C305.339 45.248 312.531 41.28 320.677 41.28C327.55 41.28 334.424 45.632 334.869 52.48H335.124C339.897 45.248 347.089 41.28 355.235 41.28C364.336 41.28 371.146 46.208 371.146 56.384V113.92H348.361V63.744C348.361 59.968 347.089 57.408 342.888 57.408C340.47 57.408 338.56 58.368 336.969 60.352L335.697 62.016V113.92H312.912V63.744C312.912 59.968 311.64 57.408 307.439 57.408C305.021 57.408 303.111 58.368 301.52 60.352L300.247 62.016V113.92H277.463V43.008H277.527Z" fill="#005F9E"/>
<path d="M378.846 13.312H401.63V47.104H401.949C405.194 43.712 411.113 41.28 415.696 41.28C431.479 41.28 439.88 57.088 439.88 77.632C439.88 93.888 433.134 114.816 414.041 114.816C405.194 114.816 399.403 110.592 394.884 103.808L390.62 113.984H378.783V13.312H378.846ZM401.63 91.2C401.249 97.152 404.749 100.416 409.077 100.416C415.377 100.416 416.268 94.016 416.268 80.896V75.52C416.268 61.376 416.268 54.016 409.268 54.016C406.467 54.016 404.367 55.744 402.903 56.832L401.63 58.112V91.2Z" fill="#005F9E"/>
<path d="M445.862 13.312H468.646V113.984H445.862V13.312Z" fill="#005F9E"/>
<path d="M497.349 81.408C497.349 87.616 498.622 98.24 507.596 98.24C513.069 98.24 517.715 94.272 519.115 88.448L534.453 94.08C533.498 97.344 526.434 113.472 506.196 113.472C484.366 113.472 474.565 95.808 474.565 76.16C474.565 56.064 485.003 39.104 505.941 39.104C527.898 39.104 535.471 58.048 535.471 76.544V81.344H497.349V81.408ZM514.342 67.84C514.214 61.184 513.642 53.568 505.75 53.568C499.258 53.568 497.349 61.184 497.349 67.84H514.342Z" fill="#005F9E"/>
<path d="M269.826 12.864H246.979V33.28H269.826V12.864Z" fill="#005F9E"/>
<path d="M135.858 12.928H206.438V32.448H183.781V113.984H158.451V32.448H135.795V12.928H135.858Z" fill="#005F9E"/>
<path d="M90.0355 88.704C89.7173 90.24 89.2718 91.648 88.6354 92.928C88.4444 93.376 88.3171 93.824 88.3171 94.272C87.3625 95.232 86.6624 95.808 86.4715 96C81.1892 100.416 77.0524 102.72 70.6881 104.832C68.3333 105.6 63.3692 106.88 57.0049 106.752L47.2039 112C59.0415 114.624 68.7788 112.192 72.5974 110.976C79.789 108.608 84.6259 105.92 90.5446 100.928C91.7538 99.904 97.9272 94.464 102.255 85.952C103.019 84.416 103.782 82.688 104.482 80.768L90.0355 88.704Z" fill="#005F9E"/>
<path d="M55.7957 19.456C56.1139 19.456 56.4958 19.456 56.8777 19.456C57.5141 19.456 58.1505 19.456 58.7869 19.456C57.6414 19.712 56.5594 20.096 55.4775 20.48L64.1966 25.216C71.0064 25.024 77.8798 28.032 82.5257 32.96C81.4438 33.088 80.3618 33.216 79.2799 33.408L94.045 41.472C93.9814 41.28 93.9814 41.152 93.9814 40.96C94.6178 41.344 95.127 41.792 95.5725 42.24L105.373 47.552C105.246 47.168 105.183 46.784 105.055 46.464C104.992 46.272 104.864 46.016 104.737 45.824C104.61 45.504 104.546 45.184 104.419 44.864C101.619 36.736 96.1452 29.632 89.2718 24.192C89.0809 23.936 88.89 23.68 88.6354 23.488C78.0071 15.296 67.3787 13.44 62.0327 13.056C61.7145 13.056 61.4599 13.056 61.2054 12.992C57.9596 12.736 54.7138 12.8 51.468 13.248C51.2771 13.312 51.0862 13.312 50.8952 13.376C49.4951 13.568 48.2859 13.824 47.3312 14.016C46.4402 14.208 45.6129 14.464 44.8492 14.656L53.9501 19.584C54.5229 19.584 55.1593 19.456 55.7957 19.456Z" fill="#005F9E"/>
<path d="M17.5464 79.36C16.1463 75.84 15.128 71.552 14.9371 69.824C14.4916 65.792 14.4916 65.792 14.4279 61.824C14.4279 60.608 14.5552 58.752 14.7461 57.408C15.2553 54.272 15.8281 50.816 17.801 46.144V33.088C16.2736 35.2 14.7461 37.504 13.4733 40.128C9.90928 47.36 9.08193 52.544 8.4455 56.384C8.12729 58.112 8 60.288 8 61.888C8.06364 66.176 8.06364 66.24 8.57278 70.592C8.891 73.216 10.2911 79.04 12.2004 83.2C13.6642 86.464 15.0643 88.96 16.7191 91.392C16.8463 91.648 17.0373 91.904 17.2282 92.096C17.4191 92.416 17.6737 92.672 17.9283 92.992V78.592C17.801 78.848 17.6737 79.104 17.5464 79.36Z" fill="#005F9E"/>
<path d="M91.6266 55.808C90.9902 56.832 90.2901 57.792 89.4628 58.624C91.8812 63.104 93.7268 67.648 94.9997 72C95.5088 71.36 95.9543 70.656 96.3998 69.952C100.346 63.488 100.982 55.552 98.3728 47.616C98.1818 47.36 98.0545 47.104 97.9273 46.784C97.6727 46.08 97.4181 45.44 97.0999 44.8C96.7817 44.544 96.5271 44.16 96.3998 43.776C96.1453 43.2 95.827 42.688 95.3815 42.24L93.9178 41.408C94.9997 46.592 94.236 51.584 91.6266 55.808Z" fill="#005F9E"/>
<path d="M52.5499 19.776C52.4227 19.776 52.2317 19.776 52.1044 19.776C49.9406 20.096 47.904 20.608 45.9311 21.248C47.5858 21.632 49.3042 22.144 51.0225 22.848C52.359 21.888 53.8864 21.12 55.4775 20.48L53.8864 19.648C53.4409 19.648 52.9954 19.712 52.5499 19.776Z" fill="#005F9E"/>
<path d="M104.482 80.832L135.413 64L105.31 47.616C109.574 60.928 107.665 72.384 104.482 80.832Z" fill="#005F9E"/>
<path d="M61.9691 25.408C60.6962 25.6 59.5507 25.856 58.4051 26.24C62.6055 28.608 66.8696 31.68 71.0064 35.392C73.8703 34.496 76.6706 33.856 79.2799 33.408L64.1966 25.216C63.4329 25.28 62.7328 25.28 61.9691 25.408Z" fill="#005F9E"/>
<path d="M76.5432 89.152C59.3597 91.584 41.1579 83.456 30.5932 70.08C26.5837 74.944 23.847 79.744 22.8287 84.032C22.4469 85.696 22.3832 87.232 22.5742 88.512C23.2742 89.472 24.038 90.432 24.9289 91.52C27.3474 94.464 34.2844 101.696 45.7401 105.024C49.7496 106.176 53.5682 106.688 56.9413 106.752L89.9718 88.768C90.2264 87.424 90.3537 86.08 90.4173 84.608C86.3442 86.848 81.6983 88.448 76.5432 89.152Z" fill="#005F9E"/>
<path d="M31.4842 59.52C35.43 55.68 39.885 51.968 44.7855 48.576C44.4673 47.872 44.1491 47.168 43.8945 46.4C41.7307 40.192 42.2398 33.92 45.422 28.8C45.6129 28.48 45.8038 28.224 46.0584 27.904C42.4944 26.88 39.1213 26.496 36.2574 26.944C34.4754 28.544 32.8843 30.4 31.6115 32.512C29.2567 36.416 28.0475 40.832 28.0475 45.504C28.0475 48.768 28.6203 52.096 29.7658 55.424C30.2113 56.832 30.8478 58.176 31.4842 59.52Z" fill="#005F9E"/>
<path d="M49.9406 44.288C50.0043 44.544 50.1315 44.736 50.2588 44.992C54.6502 42.304 59.2961 39.936 64.0057 37.952C60.0598 34.752 56.0503 32.192 52.2318 30.336C51.7226 30.912 51.2771 31.488 50.8953 32.128C48.795 35.648 48.4768 39.936 49.9406 44.288C49.9406 44.224 49.9406 44.288 49.9406 44.288Z" fill="#005F9E"/>
<path d="M75.0795 59.2C77.307 58.88 79.3436 58.176 81.0619 57.216C77.8798 52.16 73.9339 47.232 69.4153 42.752C68.6516 43.008 67.8879 43.328 67.1242 43.648C62.5419 45.504 57.9596 47.872 53.6319 50.56C58.6597 56.64 67.1242 60.288 75.0795 59.2Z" fill="#005F9E"/>
<path d="M32.3115 19.968C35.7482 18.048 38.994 16.256 44.7855 14.656L17.8646 0V33.088C24.1016 24.768 31.2932 20.544 32.3115 19.968Z" fill="#005F9E"/>
<path d="M86.1533 52.416C88.2535 48.96 88.5717 44.672 87.1079 40.32C86.9807 39.936 86.7897 39.616 86.6624 39.232C83.6712 39.168 80.2345 39.616 76.416 40.576C80.0436 44.416 83.2257 48.512 86.026 52.672C86.026 52.608 86.0897 52.544 86.1533 52.416Z" fill="#005F9E"/>
<path d="M75.6522 82.752C81.0619 81.984 85.7714 80.128 89.6536 77.312C88.699 72.704 86.8533 67.776 84.3076 62.848C81.8256 64.256 79.0253 65.216 75.9704 65.6C65.5967 67.072 54.6501 62.208 48.2222 54.08C43.3217 57.536 38.8667 61.312 34.9845 65.216C44.0218 77.44 60.3143 84.928 75.6522 82.752Z" fill="#005F9E"/>
<path d="M26.8383 64.512C25.5654 62.272 24.4835 59.968 23.6561 57.6C21.3013 50.88 20.9195 44.096 22.4469 37.824C21.3013 39.424 20.2194 41.152 19.2648 43.136C18.692 44.224 18.2465 45.248 17.8646 46.208V78.656C19.7103 73.984 22.7651 69.184 26.8383 64.512Z" fill="#005F9E"/>
<path d="M98.7546 77.76C98.1181 78.528 97.4181 79.232 96.6544 79.936C96.718 80.768 96.7816 81.536 96.8453 82.304C97.4817 80.96 98.1181 79.424 98.7546 77.76Z" fill="#005F9E"/>
<path d="M19.9648 95.68C19.2011 94.72 18.5011 93.888 17.8646 92.992V128L47.2039 112C46.122 111.744 45.0401 111.488 43.9582 111.168C30.7841 107.392 22.8288 99.072 19.9648 95.68Z" fill="#005F9E"/>
<path d="M107.346 106.816C107.346 102.592 110.91 99.136 115.238 99.136C119.566 99.136 123.066 102.592 123.066 106.816C123.066 111.104 119.566 114.56 115.238 114.56C110.91 114.624 107.346 111.168 107.346 106.816ZM108.874 106.816C108.874 110.336 111.738 113.088 115.302 113.088C118.802 113.088 121.666 110.336 121.666 106.816C121.666 103.424 118.802 100.672 115.302 100.672C111.738 100.672 108.874 103.424 108.874 106.816ZM119.248 111.168H117.72L115.174 107.2H113.647V111.168H112.374V102.528H116.256C116.956 102.528 117.72 102.592 118.42 102.976C119.057 103.36 119.375 104.128 119.375 104.832C119.375 106.56 118.166 107.2 116.575 107.2L119.248 111.168ZM115.047 106.112C116.256 106.112 117.975 106.304 117.975 104.768C117.975 103.68 117.02 103.488 115.875 103.488H113.647V106.112H115.047Z" fill="#005F9E"/>
<path d="M535.28 106.816C535.28 102.592 538.844 99.136 543.172 99.136C547.5 99.136 551 102.592 551 106.816C551 111.104 547.5 114.56 543.172 114.56C538.781 114.624 535.28 111.168 535.28 106.816ZM536.744 106.816C536.744 110.336 539.608 113.088 543.172 113.088C546.672 113.088 549.536 110.336 549.536 106.816C549.536 103.424 546.672 100.672 543.172 100.672C539.608 100.672 536.744 103.424 536.744 106.816ZM547.118 111.168H545.59L543.045 107.2H541.517V111.168H540.181V102.528H544.063C544.763 102.528 545.527 102.592 546.227 102.976C546.863 103.36 547.181 104.128 547.181 104.832C547.181 106.56 545.972 107.2 544.381 107.2L547.118 111.168ZM542.981 106.112C544.19 106.112 545.909 106.304 545.909 104.768C545.909 103.68 544.954 103.488 543.808 103.488H541.517V106.112H542.981Z" fill="#005F9E"/>
</svg>
